<svg width="94" height="50" viewBox="0 0 94 50" fill="none" xmlns="http://www.w3.org/2000/svg">
<path fill-rule="evenodd" clip-rule="evenodd" d="M78.5383 27.9129L80.5437 27.5855V29.7007H82.952V31.3927H80.5437V33.9174C80.5437 34.3451 80.6173 34.6864 80.7651 34.9409C80.9138 35.1958 81.2113 35.3231 81.6606 35.3231C81.8758 35.3231 82.0981 35.3026 82.3267 35.2616C82.5555 35.2206 82.7641 35.1639 82.952 35.091L83.2352 36.674C82.9928 36.7743 82.7234 36.8606 82.4275 36.9331C82.1316 37.0061 81.7679 37.0426 81.3377 37.0426C80.7899 37.0426 80.3375 36.9675 79.9783 36.8173C79.6193 36.6672 79.3323 36.4581 79.1172 36.1894C78.9021 35.9213 78.7517 35.5959 78.6662 35.2138C78.5807 34.8316 78.5383 34.4088 78.5383 33.9447V27.9129ZM77.179 37.0151C76.5961 37.0061 76.1228 36.9421 75.7597 36.8242C75.3967 36.706 75.1088 36.54 74.8986 36.3262C74.6875 36.1124 74.5443 35.8532 74.4675 35.5483C74.3916 35.2433 74.3532 34.8999 74.3532 34.5178V26.6165L76.3586 26.2891V34.1086C76.3586 34.2907 76.3721 34.4544 76.3987 34.5998C76.4258 34.7453 76.4769 34.8681 76.5536 34.9682C76.6297 35.0685 76.74 35.1504 76.8832 35.2138C77.0271 35.2777 77.2197 35.3186 77.462 35.3366L77.179 37.0151ZM72.4702 36.6331C72.1288 36.7333 71.6899 36.8265 71.1509 36.9127C70.6127 36.9991 70.0473 37.0426 69.4558 37.0426C68.8544 37.0426 68.3547 36.9606 67.9549 36.7968C67.5559 36.6331 67.24 36.4033 67.0066 36.1078C66.7731 35.8122 66.6076 35.4594 66.5084 35.05C66.4101 34.6407 66.3605 34.1903 66.3605 33.6991V29.7007H68.3659V33.4534C68.3659 34.1086 68.4507 34.5818 68.6209 34.8726C68.7913 35.1639 69.1102 35.3093 69.5764 35.3093C69.7205 35.3093 69.8731 35.3026 70.0346 35.289C70.1962 35.2752 70.3393 35.2594 70.4648 35.2412V29.7007H72.4702V36.6331ZM61.6909 35.4594C61.8883 35.4594 62.0763 35.455 62.2562 35.4458C62.4353 35.4368 62.5793 35.4231 62.6863 35.4049V33.8629C62.6056 33.8446 62.485 33.8266 62.3234 33.8083C62.1618 33.7901 62.0139 33.781 61.8796 33.781C61.6909 33.781 61.5134 33.7924 61.3479 33.815C61.1816 33.838 61.0361 33.881 60.9105 33.9447C60.785 34.0083 60.6859 34.0948 60.6147 34.204C60.5427 34.3131 60.5068 34.4495 60.5068 34.6134C60.5068 34.932 60.6122 35.1524 60.8234 35.2752C61.0336 35.3981 61.323 35.4594 61.6909 35.4594ZM61.5294 29.5097C62.1219 29.5097 62.6144 29.5778 63.0095 29.7142C63.4045 29.8509 63.7202 30.0465 63.9585 30.3011C64.1961 30.5559 64.364 30.8653 64.4631 31.2292C64.5614 31.593 64.611 31.9978 64.611 32.4437V36.674C64.324 36.7378 63.925 36.8129 63.4133 36.8992C62.9022 36.9856 62.2825 37.0288 61.5566 37.0288C61.0992 37.0288 60.6835 36.9879 60.3116 36.906C59.939 36.8242 59.6184 36.6899 59.3497 36.5035C59.0803 36.317 58.8739 36.0735 58.7308 35.7733C58.5869 35.4731 58.515 35.1048 58.515 34.6681C58.515 34.2497 58.5981 33.8949 58.7644 33.6037C58.93 33.3124 59.1522 33.0806 59.4305 32.9076C59.7079 32.735 60.027 32.6096 60.3859 32.5323C60.7442 32.4552 61.1168 32.4162 61.5022 32.4162C61.7628 32.4162 61.9939 32.4279 62.1955 32.4504C62.3977 32.4733 62.5608 32.5028 62.6863 32.5391V32.3481C62.6863 32.0024 62.5832 31.7251 62.377 31.5156C62.1706 31.3064 61.8116 31.2019 61.3007 31.2019C60.9594 31.2019 60.6235 31.2269 60.2916 31.2768C59.9598 31.3268 59.6728 31.3976 59.4305 31.4884L59.1746 29.8509C59.2913 29.8146 59.4369 29.7756 59.6119 29.7347C59.7871 29.6937 59.9775 29.6577 60.1837 29.6256C60.39 29.5939 60.6074 29.5665 60.8361 29.5438C61.0648 29.5211 61.2959 29.5097 61.5294 29.5097ZM53.6542 36.8787C53.1952 35.969 52.729 34.9046 52.2566 33.6856C51.7831 32.4664 51.3353 31.1382 50.9124 29.7007H53.0385C53.1289 30.0554 53.2344 30.44 53.3559 30.8536C53.4775 31.2679 53.6038 31.6863 53.7349 32.1093C53.8653 32.5322 53.9957 32.9439 54.1268 33.3443C54.2571 33.7447 54.3859 34.1086 54.5122 34.4359C54.6289 34.1086 54.7553 33.7447 54.8903 33.3443C55.0255 32.9439 55.1583 32.5322 55.2886 32.1093C55.4189 31.6863 55.5452 31.2679 55.6668 30.8536C55.7883 30.44 55.8946 30.0554 55.9841 29.7007H58.0576C57.6346 31.1382 57.1877 32.4664 56.715 33.6856C56.2424 34.9046 55.7771 35.969 55.3182 36.8787H53.6542ZM87.8902 17.7001C88.2317 17.6 88.6707 17.507 89.2096 17.4204C89.7477 17.3341 90.313 17.2906 90.9047 17.2906C91.5061 17.2906 92.0057 17.3706 92.4056 17.5295C92.8046 17.6888 93.1204 17.914 93.3539 18.2048C93.5873 18.4962 93.7529 18.8419 93.8521 19.2422C93.9503 19.6426 94 20.0882 94 20.5796V24.6324H91.9946V20.8251C91.9946 20.1701 91.909 19.706 91.7395 19.4332C91.5683 19.1603 91.2501 19.0239 90.7839 19.0239C90.64 19.0239 90.4874 19.0306 90.3259 19.0444C90.1643 19.058 90.0212 19.074 89.8957 19.092V24.6324H87.8902V17.7001ZM84.002 24.6324H86.0065V17.4544H84.002V24.6324ZM86.1952 15.3803C86.1952 15.7532 86.076 16.0468 85.8386 16.2604C85.6011 16.4743 85.3204 16.5811 84.9973 16.5811C84.6744 16.5811 84.3937 16.4743 84.1562 16.2604C83.9187 16.0468 83.7995 15.7532 83.7995 15.3803C83.7995 15.0073 83.9187 14.7139 84.1562 14.5001C84.3937 14.2864 84.6744 14.1793 84.9973 14.1793C85.3204 14.1793 85.6011 14.2864 85.8386 14.5001C86.076 14.7139 86.1952 15.0073 86.1952 15.3803ZM80.4094 21.0298C80.4094 20.4022 80.2854 19.9087 80.0392 19.5492C79.7921 19.19 79.4402 19.0101 78.9829 19.0101C78.5255 19.0101 78.1704 19.19 77.9194 19.5492C77.6683 19.9087 77.5427 20.4022 77.5427 21.0298C77.5427 21.6576 77.6683 22.1557 77.9194 22.5241C78.1704 22.8926 78.5255 23.0768 78.9829 23.0768C79.4402 23.0768 79.7921 22.8926 80.0392 22.5241C80.2854 22.1557 80.4094 21.6576 80.4094 21.0298ZM82.4546 21.0298C82.4546 21.5939 82.3739 22.1103 82.2124 22.5788C82.0508 23.0475 81.8174 23.4476 81.5127 23.7796C81.2073 24.1118 80.8418 24.3687 80.4157 24.5506C79.9895 24.7325 79.5121 24.8235 78.9829 24.8235C78.4624 24.8235 77.9889 24.7325 77.5627 24.5506C77.1367 24.3687 76.7711 24.1118 76.4666 23.7796C76.1611 23.4476 75.9237 23.0475 75.7533 22.5788C75.583 22.1103 75.4975 21.5939 75.4975 21.0298C75.4975 20.4658 75.5846 19.9518 75.7597 19.4877C75.9348 19.0239 76.1771 18.628 76.4864 18.3006C76.796 17.973 77.1638 17.7183 77.5899 17.5364C78.0161 17.3546 78.4799 17.2634 78.9829 17.2634C79.4938 17.2634 79.9631 17.3546 80.3893 17.5364C80.8147 17.7183 81.1809 17.973 81.4856 18.3006C81.7902 18.628 82.0284 19.0239 82.1988 19.4877C82.3691 19.9518 82.4546 20.4658 82.4546 21.0298ZM69.1054 21.0436C69.1054 20.5248 69.1887 20.0361 69.3542 19.5766C69.5205 19.1171 69.7603 18.7168 70.0746 18.3755C70.388 18.0344 70.7695 17.7637 71.2181 17.5637C71.6666 17.3637 72.1783 17.2634 72.7525 17.2634C73.1291 17.2634 73.4744 17.2976 73.7887 17.3657C74.1022 17.4339 74.4075 17.5319 74.7034 17.6591L74.286 19.2832C74.0981 19.2104 73.8918 19.1465 73.6672 19.092C73.4432 19.0375 73.1914 19.0101 72.9139 19.0101C72.3214 19.0101 71.8801 19.1968 71.5883 19.5696C71.2964 19.9428 71.1509 20.434 71.1509 21.0436C71.1509 21.6896 71.2875 22.1897 71.561 22.5445C71.8353 22.8995 72.3126 23.0768 72.9947 23.0768C73.237 23.0768 73.4968 23.0541 73.7751 23.0085C74.0526 22.9631 74.3084 22.8906 74.5419 22.7902L74.825 24.4551C74.5915 24.5552 74.2996 24.6415 73.9501 24.7144C73.6 24.7872 73.2146 24.8235 72.7924 24.8235C72.1472 24.8235 71.5907 24.7258 71.1237 24.5302C70.6576 24.3347 70.2737 24.0685 69.9739 23.7318C69.6732 23.3953 69.4534 22.9972 69.3142 22.5378C69.1751 22.0784 69.1054 21.5803 69.1054 21.0436ZM63.6691 15.6667L65.6737 15.3392V17.4545H68.0828V19.1465H65.6737V21.6711C65.6737 22.0989 65.748 22.4401 65.8959 22.6946C66.0439 22.9495 66.3422 23.0768 66.7907 23.0768C67.0058 23.0768 67.2281 23.0564 67.4568 23.0154C67.6854 22.9745 67.8941 22.9177 68.0828 22.8447L68.3651 24.4278C68.1228 24.5281 67.8542 24.6144 67.5574 24.6871C67.2616 24.7598 66.8986 24.7963 66.4677 24.7963C65.9208 24.7963 65.4674 24.7213 65.1083 24.5711C64.75 24.4211 64.4631 24.2118 64.2471 23.9433C64.0321 23.6751 63.8817 23.3498 63.7971 22.9676C63.7114 22.5854 63.6691 22.1625 63.6691 21.6985V15.6667ZM59.847 24.6324H61.8523V17.4544H59.847V24.6324ZM62.0403 15.3803C62.0403 15.7532 61.922 16.0468 61.6844 16.2604C61.4463 16.4743 61.1663 16.5811 60.8433 16.5811C60.5203 16.5811 60.2397 16.4743 60.0021 16.2604C59.7639 16.0468 59.6456 15.7532 59.6456 15.3803C59.6456 15.0073 59.7639 14.7139 60.0021 14.5001C60.2397 14.2864 60.5203 14.1793 60.8433 14.1793C61.1663 14.1793 61.4463 14.2864 61.6844 14.5001C61.922 14.7139 62.0403 15.0073 62.0403 15.3803ZM56.2545 20.9888C56.2545 19.6788 55.7788 19.0239 54.8281 19.0239C54.6217 19.0239 54.4178 19.051 54.2163 19.1056C54.0141 19.1603 53.8501 19.2284 53.7246 19.3104V23.0085C53.8238 23.027 53.9493 23.0429 54.102 23.0564C54.2539 23.07 54.4203 23.0768 54.5993 23.0768C55.147 23.0768 55.5596 22.8857 55.8379 22.5036C56.1154 22.1216 56.2545 21.6166 56.2545 20.9888ZM58.2998 21.0436C58.2998 21.6166 58.2166 22.1352 58.0512 22.5992C57.8849 23.063 57.645 23.459 57.3316 23.7864C57.0173 24.1139 56.6319 24.3663 56.1738 24.5437C55.7164 24.7213 55.1959 24.8099 54.6129 24.8099C54.3707 24.8099 54.1172 24.7983 53.8525 24.7758C53.5879 24.7529 53.328 24.7233 53.0722 24.6871C52.8162 24.6506 52.5724 24.6075 52.3389 24.5575C52.1054 24.5077 51.8992 24.4551 51.72 24.4006V14.3704L53.7246 14.043V17.6183C53.9493 17.5183 54.1827 17.4409 54.425 17.3862C54.6666 17.3316 54.9272 17.3044 55.2055 17.3044C55.7076 17.3044 56.1514 17.393 56.5376 17.5704C56.923 17.7477 57.246 18.0004 57.5058 18.3278C57.7665 18.6553 57.964 19.049 58.0984 19.5082C58.2327 19.9677 58.2998 20.4794 58.2998 21.0436Z" fill="white"/>
<path fill-rule="evenodd" clip-rule="evenodd" d="M20.4112 0V4.47763C21.001 4.42523 21.5966 4.39343 22.1997 4.39343C22.8029 4.39343 23.3983 4.42523 23.9882 4.47763V0H20.4112ZM3.18867 25.0001C3.18867 35.6696 11.7002 44.319 22.1998 44.319C32.6991 44.319 41.2107 35.6696 41.2107 25.0001C41.2107 14.3306 32.6991 5.68107 22.1998 5.68107C11.7002 5.68107 3.18867 14.3306 3.18867 25.0001ZM6.35717 25.0001C6.35717 16.1087 13.4501 8.901 22.1998 8.901C30.9492 8.901 38.0422 16.1087 38.0422 25.0001C38.0422 33.8914 30.9492 41.0992 22.1998 41.0992C13.4501 41.0992 6.35717 33.8914 6.35717 25.0001ZM38.7953 13.1649C39.4792 14.1535 40.0801 15.2048 40.5871 16.3105L44.3993 14.0739L42.6109 10.9262L38.7953 13.1649ZM0 14.0739L3.81225 16.3105C4.3191 15.2048 4.92003 14.1535 5.60402 13.1649L1.78842 10.9262L0 14.0739ZM22.734 12.5478V15.6792H20.316V12.5478H17.8977V15.6792H13.0547V17.954H14.0922C14.8742 17.954 15.3613 18.0512 15.5524 18.2452C15.7437 18.4392 15.8389 18.9156 15.8389 19.6739V30.2984C15.8389 31.0569 15.7437 31.5331 15.5524 31.7271C15.3613 31.9215 14.8742 32.0183 14.0922 32.0183H13.0547V34.2932H17.8977V37.4523H20.316V34.2932H22.734V37.4523H25.1523V34.242C27.0337 34.1224 28.457 33.7808 29.4064 33.2096C30.6985 32.4128 31.3445 31.0887 31.3445 29.2362C31.3445 26.5502 29.852 24.9478 26.8676 24.429C29.3246 23.7273 30.5528 22.2971 30.5528 20.1373C30.5528 18.5314 30.007 17.3871 28.915 16.7039C28.0445 16.1594 26.7858 15.8356 25.1523 15.7251V12.5478H22.734ZM20.316 17.954H21.8994C23.2821 17.954 24.2784 18.1475 24.8885 18.5341C25.4981 18.9206 25.8029 19.6289 25.8029 20.659C25.8029 21.7263 25.4933 22.4669 24.8748 22.8811C24.2561 23.2954 23.2186 23.5021 21.7628 23.5021H20.316V17.954ZM20.316 25.7768H21.9811C23.6192 25.7768 24.7835 25.9806 25.4754 26.3872C26.2398 26.8496 26.622 27.6632 26.622 28.8284C26.622 30.0675 26.2398 30.9277 25.4754 31.4082C24.802 31.8337 23.6553 32.0462 22.0358 32.0462H20.316V25.7768ZM38.7954 36.8353L42.6109 39.0739L44.3993 35.9262L40.5871 33.6897C40.0803 34.7954 39.4793 35.8468 38.7954 36.8353ZM0 35.9262L1.78842 39.0739L5.60391 36.8353C4.91992 35.8468 4.3191 34.7954 3.81215 33.6897L0 35.9262ZM22.1997 45.6069C21.5966 45.6069 21.001 45.575 20.4112 45.5226V50H23.9882V45.5226C23.3983 45.575 22.8029 45.6069 22.1997 45.6069Z" fill="url(#paint0_linear)"/>
<defs>
<linearGradient id="paint0_linear" x1="22.1997" y1="0" x2="22.1997" y2="50" gradientUnits="userSpaceOnUse">
<stop stop-color="#FFD663"/>
<stop offset="1" stop-color="#C89C65"/>
</linearGradient>
</defs>
</svg>
