<svg width="45" height="50" viewBox="0 0 45 50" fill="none" xmlns="http://www.w3.org/2000/svg">
<path fill-rule="evenodd" clip-rule="evenodd" d="M20.6254 0.101562V4.57005C21.2213 4.51776 21.8231 4.48603 22.4326 4.48603C23.0421 4.48603 23.6437 4.51776 24.2398 4.57005V0.101562H20.6254ZM3.22212 25.0506C3.22212 35.6984 11.823 44.3301 22.4327 44.3301C33.0421 44.3301 41.643 35.6984 41.643 25.0506C41.643 14.4029 33.0421 5.77104 22.4327 5.77104C11.823 5.77104 3.22212 14.4029 3.22212 25.0506ZM6.42386 25.0506C6.42386 16.1774 13.5912 8.98439 22.4327 8.98439C31.2739 8.98439 38.4412 16.1774 38.4412 25.0506C38.4412 33.9238 31.2739 41.1169 22.4327 41.1169C13.5912 41.1169 6.42386 33.9238 6.42386 25.0506ZM39.2023 13.2396C39.8934 14.2262 40.5006 15.2753 41.0129 16.3788L44.8651 14.1467L43.0579 11.0055L39.2023 13.2396ZM0 14.1467L3.85225 16.3788C4.36441 15.2753 4.97164 14.2262 5.66281 13.2396L1.80718 11.0055L0 14.1467ZM22.9725 12.6238V15.7487H20.5291V12.6238H18.0855V15.7487H13.1917V18.019H14.24C15.0303 18.019 15.5225 18.1159 15.7155 18.3095C15.9088 18.5031 16.0051 18.9786 16.0051 19.7353V30.3381C16.0051 31.0951 15.9088 31.5703 15.7155 31.7639C15.5225 31.9579 15.0303 32.0545 14.24 32.0545H13.1917V34.3248H18.0855V37.4774H20.5291V34.3248H22.9725V37.4774H25.4161V34.2737C27.3173 34.1543 28.7556 33.8134 29.7149 33.2434C31.0205 32.4482 31.6733 31.1268 31.6733 29.278C31.6733 26.5975 30.1652 24.9984 27.1494 24.4807C29.6322 23.7804 30.8734 22.3531 30.8734 20.1977C30.8734 18.5951 30.3218 17.4532 29.2184 16.7714C28.3387 16.2279 27.0668 15.9048 25.4161 15.7946V12.6238H22.9725ZM20.5291 18.019H22.1292C23.5263 18.019 24.5331 18.2121 25.1496 18.5978C25.7655 18.9835 26.0736 19.6904 26.0736 20.7184C26.0736 21.7835 25.7608 22.5226 25.1358 22.9359C24.5105 23.3494 23.4622 23.5557 21.9911 23.5557H20.5291V18.019ZM20.5291 25.8257H22.2117C23.867 25.8257 25.0435 26.0291 25.7427 26.4349C26.515 26.8963 26.9013 27.7082 26.9013 28.8711C26.9013 30.1077 26.515 30.9661 25.7427 31.4457C25.0622 31.8703 23.9034 32.0823 22.267 32.0823H20.5291V25.8257ZM39.2024 36.8616L43.0579 39.0957L44.8651 35.9544L41.0129 33.7225C40.5008 34.826 39.8935 35.8752 39.2024 36.8616ZM0 35.9544L1.80718 39.0957L5.6627 36.8616C4.97153 35.8752 4.36441 34.826 3.85214 33.7225L0 35.9544ZM22.4326 45.6153C21.8231 45.6153 21.2213 45.5835 20.6254 45.5312V49.9995H24.2398V45.5312C23.6437 45.5835 23.0421 45.6153 22.4326 45.6153Z" fill="url(#paint0_linear)"/>
<defs>
<linearGradient id="paint0_linear" x1="22.4326" y1="0.101562" x2="22.4326" y2="49.9995" gradientUnits="userSpaceOnUse">
<stop stop-color="#FFD663"/>
<stop offset="1" stop-color="#C89C65"/>
</linearGradient>
</defs>
</svg>
