<svg width="25" height="25" viewBox="0 0 25 25" fill="none" xmlns="http://www.w3.org/2000/svg">
<path fill-rule="evenodd" clip-rule="evenodd" d="M11.6541 1V3.0597C11.9331 3.03565 12.2147 3.02092 12.5 3.02092C12.7852 3.02092 13.067 3.03565 13.3459 3.0597V1H11.6541ZM3.50817 12.5C3.50817 17.408 7.53399 21.3867 12.5 21.3867C17.4661 21.3867 21.4918 17.408 21.4918 12.5C21.4918 7.59208 17.4661 3.61333 12.5 3.61333C7.53399 3.61333 3.50817 7.59208 3.50817 12.5ZM5.0068 12.5C5.0068 8.41002 8.36166 5.09449 12.5 5.09449C16.6383 5.09449 19.9932 8.41002 19.9932 12.5C19.9932 16.59 16.6383 19.9056 12.5 19.9056C8.36166 19.9056 5.0068 16.59 5.0068 12.5ZM20.3494 7.0558C20.6729 7.51059 20.9571 7.99422 21.1968 8.50282L23 7.47397L22.1541 6.02605L20.3494 7.0558ZM2 7.47397L3.80311 8.50282C4.04289 7.99422 4.32706 7.51059 4.65058 7.0558L2.84594 6.02605L2 7.47397ZM12.7527 6.77208V8.21238H11.609V6.77208H10.4653V8.21238H8.17459V9.25888H8.66528C9.03517 9.25888 9.26562 9.30351 9.35593 9.39282C9.44641 9.48209 9.49146 9.70121 9.49146 10.05V14.9373C9.49146 15.2862 9.44641 15.5052 9.35593 15.5945C9.26562 15.6839 9.03517 15.7285 8.66528 15.7285H8.17459V16.7749H10.4653V18.228H11.609V16.7749H12.7527V18.228H13.8965V16.7513C14.7864 16.6963 15.4596 16.5391 15.9086 16.2764C16.5198 15.9099 16.8253 15.3009 16.8253 14.4486C16.8253 13.2131 16.1194 12.476 14.7078 12.2373C15.8699 11.9146 16.4509 11.2566 16.4509 10.2631C16.4509 9.5244 16.1927 8.9981 15.6762 8.68381C15.2645 8.43332 14.6691 8.28435 13.8965 8.23357V6.77208H12.7527ZM11.609 9.25888H12.358C13.0119 9.25888 13.4832 9.34784 13.7718 9.52571C14.0601 9.70343 14.2043 10.0293 14.2043 10.5032C14.2043 10.9941 14.0578 11.3348 13.7653 11.5253C13.4726 11.7158 12.982 11.811 12.2933 11.811H11.609V9.25888ZM11.609 12.8573H12.3966C13.1715 12.8573 13.7221 12.9511 14.0493 13.1382C14.4109 13.3507 14.5917 13.7251 14.5917 14.2611C14.5917 14.8311 14.4109 15.2267 14.0493 15.4478C13.7308 15.6436 13.1885 15.7412 12.4224 15.7412H11.609V12.8573ZM20.3494 17.9442L22.1541 18.9739L23 17.526L21.1969 16.4973C20.9571 17.0059 20.6729 17.4895 20.3494 17.9442ZM2 17.526L2.84594 18.9739L4.65053 17.9442C4.32706 17.4895 4.04284 17.0059 3.80311 16.4973L2 17.526ZM12.5 21.9792C12.2147 21.9792 11.9331 21.9645 11.6541 21.9404V24H13.3459V21.9404C13.067 21.9645 12.7852 21.9792 12.5 21.9792Z" fill="#D6B56D"/>
</svg>
