<svg width="25" height="25" viewBox="0 0 25 25" fill="none" xmlns="http://www.w3.org/2000/svg">
<path d="M12.5011 2.23828C6.97548 2.23599 2.5 6.83089 2.5 12.5022C2.5 16.987 5.29969 20.7992 9.19869 22.1993C9.72377 22.3347 9.64334 21.9514 9.64334 21.6897V19.911C6.61127 20.2759 6.48838 18.2149 6.28505 17.8706C5.87392 17.1499 4.90197 16.9663 5.19244 16.622C5.88286 16.2571 6.58669 16.7138 7.40225 17.9509C7.99212 18.8483 9.14283 18.6969 9.72601 18.5477C9.85337 18.0083 10.126 17.5263 10.5013 17.1522C7.35979 16.5738 6.05044 14.6046 6.05044 12.2635C6.05044 11.1274 6.41465 10.0831 7.12965 9.24081C6.67384 7.85224 7.1721 6.66335 7.23914 6.48662C8.53731 6.36727 9.88688 7.4414 9.9919 7.52632C10.7292 7.32206 11.5716 7.21418 12.5145 7.21418C13.4619 7.21418 14.3065 7.32665 15.0506 7.53321C15.303 7.33583 16.5543 6.41317 17.7609 6.52564C17.8257 6.70236 18.3128 7.86371 17.8838 9.23392C18.6077 10.0785 18.9764 11.132 18.9764 12.2704C18.9764 14.6161 17.6581 16.5876 14.5076 17.1568C15.0527 17.7075 15.3595 18.4601 15.3589 19.2454V21.8274C15.3768 22.034 15.3589 22.2383 15.6941 22.2383C19.6512 20.8681 22.5 17.0283 22.5 12.5045C22.5 6.83089 18.0223 2.23828 12.5011 2.23828Z" fill="#D6B56D"/>
</svg>
