<svg width="25" height="25" viewBox="0 0 25 25" fill="none" xmlns="http://www.w3.org/2000/svg">
<path fill-rule="evenodd" clip-rule="evenodd" d="M22.4323 8.96356C22.3596 7.42818 22.009 6.06814 20.8845 4.94761C19.7642 3.82708 18.4044 3.47637 16.8694 3.39939C15.2873 3.30958 10.5454 3.30958 8.96328 3.39939C7.43252 3.4721 6.07278 3.8228 4.94822 4.94333C3.82367 6.06386 3.47732 7.4239 3.40035 8.95929C3.31056 10.5417 3.31056 15.2847 3.40035 16.8672C3.47304 18.4026 3.82367 19.7626 4.94822 20.8831C6.07278 22.0037 7.42824 22.3544 8.96328 22.4313C10.5454 22.5212 15.2873 22.5212 16.8694 22.4313C18.4044 22.3586 19.7642 22.0079 20.8845 20.8831C22.0047 19.7626 22.3554 18.4026 22.4323 16.8672C22.5221 15.2847 22.5221 10.546 22.4323 8.96356ZM18.0275 8.95425C18.6625 8.95425 19.1775 8.44362 19.1775 7.80425C19.1775 7.16918 18.6625 6.65425 18.0275 6.65425C17.3924 6.65425 16.8775 7.16918 16.8775 7.80425C16.8775 8.43933 17.3881 8.95425 18.0275 8.95425ZM12.9802 7.93203C10.2572 7.93203 8.06079 10.1284 8.06079 12.8515C8.06079 15.5745 10.2572 17.7709 12.9802 17.7709C15.7033 17.7709 17.8997 15.5745 17.8997 12.8515C17.8997 10.1284 15.7033 7.93203 12.9802 7.93203ZM12.9163 16.1098C11.1588 16.1098 9.7219 14.6772 9.7219 12.9154C9.7219 11.1535 11.1545 9.72092 12.9163 9.72092C14.6782 9.72092 16.1108 11.1535 16.1108 12.9154C16.1108 14.6772 14.6739 16.1098 12.9163 16.1098ZM18.6229 20.3139C19.4644 19.9764 20.1094 19.3314 20.4426 18.4942C20.8713 17.417 20.8474 15.0609 20.832 13.5335C20.8294 13.2801 20.8271 13.0496 20.8271 12.8515C20.8271 12.6533 20.8294 12.4228 20.832 12.1695C20.8474 10.643 20.8713 8.28955 20.4426 7.20876C20.1052 6.36727 19.4602 5.72226 18.6229 5.38908C17.5424 4.96275 15.1748 4.98546 13.6479 5.0001C13.4002 5.00248 13.1746 5.00464 12.9802 5.00464C12.7821 5.00464 12.5516 5.00231 12.2983 4.99974C10.7717 4.98428 8.41831 4.96043 7.33752 5.38908C6.49602 5.72654 5.85102 6.37154 5.51784 7.20876C5.0915 8.2893 5.11421 10.6569 5.12886 12.1838C5.13123 12.4315 5.1334 12.6571 5.1334 12.8515C5.1334 13.0496 5.13106 13.2801 5.1285 13.5334C5.11303 15.06 5.08919 17.4134 5.51784 18.4942C5.85529 19.3357 6.50029 19.9807 7.33752 20.3139C8.41806 20.7402 10.7857 20.7175 12.3126 20.7028C12.5603 20.7005 12.7859 20.6983 12.9802 20.6983C13.1784 20.6983 13.4089 20.7006 13.6622 20.7032C15.1887 20.7187 17.5422 20.7425 18.6229 20.3139Z" fill="#D6B56D"/>
</svg>
