<svg width="25" height="25" viewBox="0 0 25 25" fill="none" xmlns="http://www.w3.org/2000/svg">
<path fill-rule="evenodd" clip-rule="evenodd" d="M13.5602 12.4998C13.5602 15.9519 10.8212 18.75 7.44304 18.75C4.06453 18.75 1.32617 15.9525 1.32617 12.4998C1.32617 9.04716 4.06483 6.25 7.44304 6.25C10.8212 6.25 13.5602 9.04809 13.5602 12.4998Z" fill="#D6B56D"/>
<path fill-rule="evenodd" clip-rule="evenodd" d="M20.9008 12.4998C20.9008 15.9516 19.4765 18.75 17.7201 18.75C15.9634 18.75 14.5391 15.951 14.5391 12.4998C14.5391 9.04903 15.9634 6.25 17.7201 6.25C19.4765 6.25 20.9008 9.04903 20.9008 12.4998Z" fill="#D6B56D"/>
<path fill-rule="evenodd" clip-rule="evenodd" d="M23.8364 12.5C23.8364 15.6757 23.3981 18.25 22.8575 18.25C22.3172 18.25 21.8789 15.6747 21.8789 12.5C21.8789 9.32531 22.3172 6.75 22.8578 6.75C23.3986 6.75 23.8364 9.32463 23.8364 12.5Z" fill="#D6B56D"/>
</svg>
