<svg width="25" height="25" viewBox="0 0 25 25" fill="none" xmlns="http://www.w3.org/2000/svg">
<path d="M20.4442 8.3216C20.4569 8.50388 20.4569 8.68621 20.4569 8.86849C20.4569 14.4284 16.3326 20.8346 8.79444 20.8346C6.47209 20.8346 4.31473 20.1445 2.5 18.9466C2.82996 18.9857 3.14719 18.9987 3.48985 18.9987C5.40607 18.9987 7.17006 18.3347 8.5787 17.2018C6.77666 17.1628 5.26649 15.9518 4.74618 14.2852C5.00001 14.3242 5.2538 14.3502 5.52032 14.3502C5.88833 14.3502 6.25638 14.2981 6.599 14.207C4.72083 13.8164 3.31215 12.1237 3.31215 10.0794V10.0274C3.85782 10.3399 4.49239 10.5352 5.16493 10.5612C4.06087 9.80595 3.33754 8.51691 3.33754 7.05856C3.33754 6.27733 3.54055 5.56118 3.8959 4.93618C5.91369 7.48826 8.9467 9.1549 12.3477 9.33722C12.2843 9.02472 12.2462 8.69923 12.2462 8.3737C12.2462 6.05597 14.0736 4.16797 16.3452 4.16797C17.5254 4.16797 18.5914 4.67578 19.3401 5.49609C20.2665 5.31381 21.1548 4.96223 21.9416 4.48047C21.637 5.45706 20.9898 6.27737 20.1396 6.79817C20.9645 6.70706 21.764 6.47264 22.5 6.14715C21.9417 6.98045 21.2437 7.72261 20.4442 8.3216Z" fill="#D6B56D"/>
</svg>
