<svg width="25" height="25" viewBox="0 0 25 25" fill="none" xmlns="http://www.w3.org/2000/svg">
<path fill-rule="evenodd" clip-rule="evenodd" d="M20.9654 5.44867C21.8975 5.69559 22.6317 6.42316 22.8809 7.34699C23.3337 9.02148 23.3337 12.5152 23.3337 12.5152C23.3337 12.5152 23.3337 16.0088 22.8809 17.6833C22.6317 18.6071 21.8975 19.3044 20.9654 19.5513C19.2756 20 12.5003 20 12.5003 20C12.5003 20 5.725 20 4.0353 19.5513C3.10311 19.3044 2.36892 18.6071 2.11974 17.6833C1.66699 16.0088 1.66699 12.5152 1.66699 12.5152C1.66699 12.5152 1.66699 9.02148 2.11974 7.34699C2.36892 6.42316 3.10311 5.69563 4.0353 5.44867C5.725 5 12.5003 5 12.5003 5C12.5003 5 19.2757 5 20.9654 5.44867ZM10.0003 9.16667V15.8333L15.8337 12.5001L10.0003 9.16667Z" fill="#D6B56D"/>
</svg>
